<svg width="1400" height="800" viewBox="0 0 1400 800" fill="none" xmlns="http://www.w3.org/2000/svg">
  <rect width="1400" height="800" fill="#F8FAFC"/>
  <rect x="40" y="40" width="1320" height="720" rx="28" fill="white" stroke="#E2E8F0"/>
  <rect x="84" y="96" width="280" height="42" rx="10" fill="#0F172A"/>
  <rect x="84" y="160" width="180" height="22" rx="8" fill="#CBD5E1"/>
  <rect x="84" y="214" width="300" height="170" rx="16" fill="#EFF6FF"/>
  <rect x="404" y="214" width="300" height="170" rx="16" fill="#EEF2FF"/>
  <rect x="724" y="214" width="300" height="170" rx="16" fill="#F0FDF4"/>
  <rect x="1044" y="214" width="300" height="170" rx="16" fill="#FFF7ED"/>
  <circle cx="234" cy="299" r="42" fill="#38BDF8"/>
  <circle cx="554" cy="299" r="42" fill="#6366F1"/>
  <circle cx="874" cy="299" r="42" fill="#22C55E"/>
  <circle cx="1194" cy="299" r="42" fill="#F97316"/>
  <rect x="84" y="424" width="620" height="280" rx="18" fill="#F8FAFC" stroke="#E2E8F0"/>
  <rect x="724" y="424" width="620" height="280" rx="18" fill="#F8FAFC" stroke="#E2E8F0"/>
  <path d="M124 642L214 582L314 612L444 520L544 556L664 474" stroke="#0EA5E9" stroke-width="10" stroke-linecap="round" stroke-linejoin="round"/>
  <rect x="764" y="474" width="540" height="24" rx="8" fill="#CBD5E1"/>
  <rect x="764" y="518" width="470" height="24" rx="8" fill="#E2E8F0"/>
  <rect x="764" y="562" width="510" height="24" rx="8" fill="#E2E8F0"/>
  <rect x="764" y="606" width="430" height="24" rx="8" fill="#E2E8F0"/>
</svg>
